<svg xmlns="http://www.w3.org/2000/svg" xmlns:xlink="http://www.w3.org/1999/xlink" width="1552.0037495473944" height="1352.1925048828125" viewBox="346.00000047683716 197.951904296875 388.0009373868486 338.0481262207031"><g><path d="M 259.7238159179688 45.16699981689453 C 192.4296875 67.56184387207031 125.1203460693359 89.90944671630859 57.81100463867188 112.2570114135742 C 72.80329895019531 152.8697204589844 111.8554992675781 181.8286437988281 157.6776275634766 181.8286437988281 C 216.4557800292969 181.8286437988281 264.1065979003906 134.1811828613281 264.1065979003906 75.39960479736328 C 264.1065979003906 64.89469146728516 262.5596618652344 54.75418090820312 259.7238159179688 45.16699981689453" transform="matrix(1,0,0,1,385.7157516479492,228.9813175201416)" fill="#ffffff" fill-rule="evenodd"/><path d="M 174.4537353515625 98.89321899414062 C 175.659912109375 99.35714721679688 177.3132019042969 99.353759765625 178.5497436523438 98.94552612304688 C 202.8019714355469 90.98965454101562 227.0221252441406 82.94438934326172 251.2490539550781 74.91092681884766 C 252.8887939453125 74.36602783203125 254.5285339355469 73.81775665283203 256.1682739257812 73.27117156982422 C 242.2286987304688 30.73532485961914 202.2317199707031 0 155.0347595214844 0 C 114.7712936401367 0 79.73918914794922 22.3627815246582 61.65799713134766 55.34011840820312 C 62.21302032470703 55.55605697631836 62.77141571044922 55.77199554443359 63.32643890380859 55.98623657226562 C 100.3609848022461 70.30712127685547 137.3905029296875 84.6431884765625 174.4537353515625 98.89321899414062" transform="matrix(1,0,0,1,388.3586196899414,197.951904296875)" fill="#ffffff" fill-rule="evenodd"/><path d="M 176.7621154785156 77.59941864013672 C 173.1789245605469 76.19078063964844 170.1541442871094 74.98795318603516 167.1175537109375 73.81380462646484 C 133.2494812011719 60.70249938964844 99.37635040283203 47.59625244140625 65.51670074462891 34.46300506591797 C 58.11924743652344 48.96102142333984 53.92201232910156 65.36197662353516 53.92201232910156 82.75318908691406 C 53.92201232910156 94.62791442871094 55.89409637451172 106.0336761474609 59.48233032226562 116.6988677978516 C 97.43292999267578 104.0750732421875 135.3902893066406 91.46650695800781 173.34423828125 78.85960388183594 C 174.2991027832031 78.54076385498047 175.2336730957031 78.16623687744141 176.7621154785156 77.59941864013672" transform="matrix(1,0,0,1,383.0440254211426,221.62774085998535)" fill="#ffffff" fill-rule="evenodd"/><path d="M 6.142341613769531 183.6228790283203 C 2.027765512466431 179.5082550048828 0 174.5737762451172 0 168.7604217529297 C 0 162.9453582763672 2.027765512466431 158.0075225830078 6.142341613769531 153.8963775634766 C 10.25354385375977 149.7817840576172 15.19137382507324 147.7540130615234 21.06042289733887 147.7540130615234 C 26.27154159545898 147.7540130615234 30.93101501464844 149.5084686279297 35.10126495361328 153.0748138427734 C 35.37455749511719 153.2924041748047 35.48421096801758 153.5134124755859 35.48421096801758 153.7867279052734 C 35.48421096801758 154.0042877197266 35.37455749511719 154.2252960205078 35.20923233032227 154.3906707763672 L 34.27632522583008 155.5968170166016 C 34.00303268432617 155.8701324462891 33.78203582763672 155.9797821044922 33.56441497802734 155.9797821044922 C 33.39739990234375 155.9797821044922 33.17977905273438 155.8701324462891 32.90480041503906 155.5968170166016 C 29.39416694641113 152.5805206298828 25.39262008666992 151.0435943603516 20.95076560974121 151.0435943603516 C 16.0686092376709 151.0435943603516 11.89836120605469 152.7981109619141 8.443400382995605 156.2530975341797 C 4.988438129425049 159.7114105224609 3.287949562072754 163.8782806396484 3.287949562072754 168.7604217529297 C 3.287949562072754 173.6409149169922 5.04410982131958 177.8077850341797 8.49907112121582 181.2627716064453 C 11.95403289794922 184.7176971435547 16.23056030273438 186.4738311767578 21.22237014770508 186.4738311767578 C 27.14878082275391 186.4738311767578 31.64292907714844 184.2824554443359 34.65927124023438 179.9468841552734 L 34.65927124023438 171.9420928955078 L 21.00475120544434 171.9420928955078 C 20.34513664245605 171.9977874755859 20.07184410095215 171.6654510498047 20.12751579284668 171.0092315673828 L 20.12751579284668 169.5820159912109 C 20.07184410095215 168.9780731201172 20.34513664245605 168.6490936279297 21.00475120544434 168.7047576904297 L 37.1290283203125 168.7047576904297 C 37.73466110229492 168.7047576904297 38.06193542480469 168.9780731201172 38.00626373291016 169.5820159912109 L 38.00626373291016 179.9468841552734 C 38.00626373291016 180.7718048095703 37.73466110229492 181.5950775146484 37.1290283203125 182.3069610595703 C 33.78203582763672 186.6392059326172 28.35329246520996 189.7651519775391 21.16839027404785 189.7651519775391 C 15.24535655975342 189.7651519775391 10.25354385375977 187.7374114990234 6.142341613769531 183.6228790283203" transform="matrix(1,0,0,1,346.00000047683716,299.4578552246094)" fill="#ffffff" fill-rule="evenodd"/><path d="M 29.19828796386719 189.1489410400391 C 28.70399856567383 189.1489410400391 28.48300552368164 188.9819488525391 28.48300552368164 188.5990142822266 C 28.48300552368164 188.4927215576172 28.48300552368164 188.3813629150391 28.53867340087891 188.2717437744141 L 42.68917083740234 148.7252349853516 C 42.8544921875 148.2326202392578 43.18345642089844 148.0149993896484 43.67943572998047 148.0149993896484 L 44.77261352539062 148.0149993896484 C 45.26689147949219 148.0149993896484 45.59754943847656 148.2326202392578 45.76118469238281 148.7252349853516 L 59.91167449951172 188.2717437744141 C 59.96735382080078 188.3813629150391 59.96735382080078 188.4927215576172 59.96735382080078 188.5990142822266 C 59.96735382080078 188.9819488525391 59.74636077880859 189.1489410400391 59.2520751953125 189.1489410400391 L 57.55326843261719 189.1489410400391 C 57.00667572021484 189.1489410400391 56.67434692382812 188.9279327392578 56.51239013671875 188.4370574951172 L 53.10972595214844 179.1670379638672 L 35.28495788574219 179.1670379638672 L 32.04762268066406 188.4370574951172 C 31.88567352294922 188.9279327392578 31.55839538574219 189.1489410400391 31.00843048095703 189.1489410400391 L 29.19828796386719 189.1489410400391 Z M 36.49115753173828 175.9853363037109 L 51.95919799804688 175.9853363037109 L 44.22601318359375 153.9920196533203 L 36.49115753173828 175.9853363037109 Z" transform="matrix(1,0,0,1,365.5676155090332,299.6371841430664)" fill="#ffffff" fill-rule="evenodd"/><path d="M 63.67762756347656 189.1479949951172 C 63.07367706298828 189.1479949951172 62.80039215087891 188.8746490478516 62.85267639160156 188.2707061767578 L 62.85267639160156 151.3019561767578 L 52.32078552246094 151.3019561767578 C 51.66454315185547 151.3576202392578 51.39125061035156 151.0303497314453 51.44355010986328 150.4247283935547 L 51.44355010986328 148.9469146728516 C 51.39125061035156 148.3412628173828 51.72021484375 148.0139923095703 52.32078552246094 148.0139923095703 L 76.72988128662109 148.0139923095703 C 77.33553314208984 148.0139923095703 77.66280364990234 148.3412628173828 77.60712432861328 148.9469146728516 L 77.60712432861328 150.4247283935547 C 77.66280364990234 151.0303497314453 77.33553314208984 151.3576202392578 76.72988128662109 151.3019561767578 L 66.14400482177734 151.3019561767578 L 66.14400482177734 188.2707061767578 C 66.14400482177734 188.8746490478516 65.87070465087891 189.1479949951172 65.26676177978516 189.1479949951172 L 63.67762756347656 189.1479949951172 Z" transform="matrix(1,0,0,1,381.3370590209961,299.63651275634766)" fill="#ffffff" fill-rule="evenodd"/><path d="M 72.93568420410156 189.1479949951172 C 72.33512878417969 189.1479949951172 72.00277709960938 188.8746490478516 72.05845642089844 188.2707061767578 L 72.05845642089844 148.9469146728516 C 72.00277709960938 148.3412628173828 72.33512878417969 148.0139923095703 72.93568420410156 148.0139923095703 L 90.98147583007812 148.0139923095703 C 91.58538818359375 148.0139923095703 91.91435241699219 148.3412628173828 91.91435241699219 148.9469146728516 L 91.91435241699219 150.4247283935547 C 91.91435241699219 151.0303497314453 91.58538818359375 151.3576202392578 90.98147583007812 151.3019561767578 L 75.35148620605469 151.3019561767578 L 75.35148620605469 165.7830963134766 L 90.98147583007812 165.7830963134766 C 91.58538818359375 165.7830963134766 91.91435241699219 166.1103973388672 91.91435241699219 166.7143096923828 L 91.91435241699219 168.1972198486328 C 91.91435241699219 168.7977752685547 91.58538818359375 169.1301116943359 90.98147583007812 169.0744171142578 L 75.35148620605469 169.0744171142578 L 75.35148620605469 185.8583526611328 L 90.98147583007812 185.8583526611328 C 91.58538818359375 185.8043365478516 91.91435241699219 186.1316070556641 91.91435241699219 186.7372589111328 L 91.91435241699219 188.2707061767578 C 91.91435241699219 188.8746490478516 91.58538818359375 189.1479949951172 90.98147583007812 189.1479949951172 L 72.93568420410156 189.1479949951172 Z" transform="matrix(1,0,0,1,395.49951553344727,299.63651275634766)" fill="#ffffff" fill-rule="evenodd"/><path d="M 106.9113540649414 183.6228790283203 C 102.8001480102539 179.5082550048828 100.7690048217773 174.5737762451172 100.7690048217773 168.7604217529297 C 100.7690048217773 162.9453582763672 102.8001480102539 158.0075225830078 106.9113540649414 153.8963775634766 C 111.0259017944336 149.7817840576172 115.963737487793 147.7540130615234 121.8293991088867 147.7540130615234 C 127.0439376831055 147.7540130615234 131.7033996582031 149.5084686279297 135.8702392578125 153.0748138427734 C 136.1469116210938 153.2924041748047 136.2582702636719 153.5134124755859 136.2582702636719 153.7867279052734 C 136.2582702636719 154.0042877197266 136.1469116210938 154.2252960205078 135.9815979003906 154.3906707763672 L 135.0486755371094 155.5968170166016 C 134.7754211425781 155.8701324462891 134.5577697753906 155.9797821044922 134.3367919921875 155.9797821044922 C 134.1714477539062 155.9797821044922 133.9538269042969 155.8701324462891 133.6805419921875 155.5968170166016 C 130.169921875 152.5805206298828 126.1650009155273 151.0435943603516 121.7231369018555 151.0435943603516 C 116.8409805297852 151.0435943603516 112.6707382202148 152.7981109619141 109.2157516479492 156.2530975341797 C 105.7608108520508 159.7114105224609 104.0603408813477 163.8782806396484 104.0603408813477 168.7604217529297 C 104.0603408813477 173.6409149169922 105.8164901733398 177.8077850341797 109.2714157104492 181.2627716064453 C 112.7264022827148 184.7176971435547 117.0062942504883 186.4738311767578 121.994743347168 186.4738311767578 C 127.9211502075195 186.4738311767578 132.4153137207031 184.2824554443359 135.4350280761719 179.9468841552734 L 135.4350280761719 171.9420928955078 L 121.7771224975586 171.9420928955078 C 121.1175155639648 171.9977874755859 120.8442153930664 171.6654510498047 120.8998947143555 171.0092315673828 L 120.8998947143555 169.5820159912109 C 120.8442153930664 168.9780731201172 121.1175155639648 168.6490936279297 121.7771224975586 168.7047576904297 L 137.9013977050781 168.7047576904297 C 138.503662109375 168.7047576904297 138.8343200683594 168.9780731201172 138.7803344726562 169.5820159912109 L 138.7803344726562 179.9468841552734 C 138.7803344726562 180.7718048095703 138.503662109375 181.5950775146484 137.9013977050781 182.3069610595703 C 134.5577697753906 186.6392059326172 129.1256713867188 189.7651519775391 121.9407730102539 189.7651519775391 C 116.0177230834961 189.7651519775391 111.0259017944336 187.7374114990234 106.9113540649414 183.6228790283203" transform="matrix(1,0,0,1,415.2275924682617,299.4578552246094)" fill="#ffffff" fill-rule="evenodd"/><path d="M 130.9772491455078 189.1479949951172 C 130.3766937255859 189.1479949951172 130.1000213623047 188.8746490478516 130.1000213623047 188.2707061767578 L 130.1000213623047 148.9469146728516 C 130.1000213623047 148.3412628173828 130.3766937255859 148.0139923095703 130.9772491455078 148.0139923095703 L 132.4600982666016 148.0139923095703 C 133.0640411376953 148.0139923095703 133.3930206298828 148.3412628173828 133.3373260498047 148.9469146728516 L 133.3373260498047 185.8583526611328 L 148.8053741455078 185.8583526611328 C 149.4059600830078 185.8043365478516 149.7382659912109 186.1316070556641 149.6826019287109 186.7372589111328 L 149.6826019287109 188.2707061767578 C 149.7382659912109 188.8746490478516 149.4059600830078 189.1479949951172 148.8053741455078 189.1479949951172 L 130.9772491455078 189.1479949951172 Z" transform="matrix(1,0,0,1,435.3777847290039,299.63651275634766)" fill="#ffffff" fill-rule="evenodd"/><path d="M 177.8035583496094 189.1496429443359 C 177.2029724121094 189.1496429443359 176.8723449707031 188.8763580322266 176.9263000488281 188.2707061767578 L 176.9263000488281 148.9469146728516 C 176.8723449707031 148.3429718017578 177.2029724121094 148.0139923095703 177.8035583496094 148.0139923095703 L 185.0458374023438 148.0139923095703 C 188.0065002441406 148.0139923095703 190.584228515625 149.1105804443359 192.7233276367188 151.2480010986328 C 194.8607177734375 153.3904266357422 195.960693359375 156.0238189697266 195.960693359375 159.0401763916016 C 195.960693359375 162.7127838134766 194.422119140625 165.6211395263672 191.351806640625 167.8142547607422 C 196.0146484375 169.5147552490234 198.8656616210938 173.4083099365234 198.8656616210938 178.0695037841797 C 198.8656616210938 181.1397857666016 197.7708129882812 183.7732086181641 195.6316833496094 185.9123077392578 C 193.4892578125 188.0497283935547 190.8575439453125 189.1496429443359 187.8411254882812 189.1496429443359 L 177.8035583496094 189.1496429443359 Z M 180.2193298339844 167.0449676513672 L 184.9901428222656 167.0449676513672 C 187.1292419433594 167.0449676513672 188.9950561523438 166.2773895263672 190.472900390625 164.7439117431641 C 192.0114135742188 163.2053680419922 192.77734375 161.3412322998047 192.77734375 159.2021331787109 C 192.77734375 156.9533843994141 192.0114135742188 155.0909576416016 190.472900390625 153.6080780029297 C 188.9393920898438 152.0712738037109 187.0735778808594 151.3036651611328 184.8805236816406 151.3036651611328 L 180.2193298339844 151.3036651611328 L 180.2193298339844 167.0449676513672 Z M 180.2193298339844 185.8600006103516 L 187.7854614257812 185.8600006103516 C 189.9246215820312 185.8600006103516 191.7904052734375 185.0890350341797 193.2716369628906 183.5555572509766 C 194.8067626953125 182.0187225341797 195.5760192871094 180.1529083251953 195.5760192871094 177.9615325927734 C 195.5760192871094 175.7650604248047 194.8067626953125 173.9025726318359 193.2716369628906 172.3657379150391 C 191.7904052734375 170.8305816650391 189.9246215820312 170.0647125244141 187.7854614257812 170.0647125244141 L 180.2193298339844 170.0647125244141 L 180.2193298339844 185.8600006103516 Z" transform="matrix(1,0,0,1,467.54325103759766,299.63651275634766)" fill="#ffffff" fill-rule="evenodd"/><path d="M 195.294921875 189.1489410400391 C 194.8006591796875 189.1489410400391 194.5830078125 188.9819488525391 194.5830078125 188.5990142822266 C 194.5830078125 188.4927215576172 194.5830078125 188.3813629150391 194.6336059570312 188.2717437744141 L 208.7841491699219 148.7252349853516 C 208.9511413574219 148.2326202392578 209.2784118652344 148.0149993896484 209.772705078125 148.0149993896484 L 210.8675231933594 148.0149993896484 C 211.3618469238281 148.0149993896484 211.6891174316406 148.2326202392578 211.8561401367188 148.7252349853516 L 226.0066223144531 188.2717437744141 C 226.0622863769531 188.3813629150391 226.0622863769531 188.4927215576172 226.0622863769531 188.5990142822266 C 226.0622863769531 188.9819488525391 225.843017578125 189.1489410400391 225.3486938476562 189.1489410400391 L 223.6465148925781 189.1489410400391 C 223.0982360839844 189.1489410400391 222.77099609375 188.9279327392578 222.6073303222656 188.4370574951172 L 219.2046508789062 179.1670379638672 L 201.381591796875 179.1670379638672 L 198.1425476074219 188.4370574951172 C 197.9822692871094 188.9279327392578 197.6482543945312 189.1489410400391 197.1033630371094 189.1489410400391 L 195.294921875 189.1489410400391 Z M 202.5860900878906 175.9853363037109 L 218.0557861328125 175.9853363037109 L 210.3226318359375 153.9920196533203 L 202.5860900878906 175.9853363037109 Z" transform="matrix(1,0,0,1,479.6771545410156,299.6371841430664)" fill="#ffffff" fill-rule="evenodd"/><path d="M 219.26123046875 189.1479949951172 C 218.66064453125 189.1479949951172 218.3839721679688 188.8746490478516 218.3839721679688 188.2707061767578 L 218.3839721679688 148.9469146728516 C 218.3839721679688 148.3412628173828 218.66064453125 148.0139923095703 219.26123046875 148.0139923095703 L 220.7440795898438 148.0139923095703 C 221.3480224609375 148.0139923095703 221.677001953125 148.3412628173828 221.621337890625 148.9469146728516 L 221.621337890625 185.8583526611328 L 237.08935546875 185.8583526611328 C 237.6899108886719 185.8043365478516 238.0222473144531 186.1316070556641 237.9665832519531 186.7372589111328 L 237.9665832519531 188.2707061767578 C 238.0222473144531 188.8746490478516 237.6899108886719 189.1479949951172 237.08935546875 189.1479949951172 L 219.26123046875 189.1479949951172 Z" transform="matrix(1,0,0,1,496.0283203125,299.63651275634766)" fill="#ffffff" fill-rule="evenodd"/><path d="M 99.26663970947266 187.0397796630859 C 102.200325012207 189.9734344482422 103.6443862915039 193.4890899658203 103.6443862915039 197.5935516357422 C 103.6443862915039 201.7368316650391 102.1615219116211 205.2541961669922 99.22783660888672 208.1862030029297 C 96.29921722412109 211.1165313720703 92.77848052978516 212.5605621337891 88.67739105224609 212.5605621337891 C 84.53412628173828 212.5605621337891 81.01338958740234 211.1165313720703 78.08475494384766 208.1862030029297 C 75.15445709228516 205.2541961669922 73.70700836181641 201.7368316650391 73.70700836181641 197.6323394775391 C 73.70700836181641 193.4890899658203 75.15445709228516 189.9734344482422 78.08475494384766 187.0397796630859 C 81.01338958740234 184.1094818115234 84.57292938232422 182.6619720458984 88.79547882080078 182.6619720458984 C 92.85774993896484 182.6619720458984 96.33634185791016 184.1094818115234 99.26663970947266 187.0397796630859 M 80.54776763916016 189.5027313232422 C 78.31926727294922 191.7312469482422 77.18558502197266 194.4287261962891 77.18558502197266 197.5935516357422 C 77.18558502197266 200.7583770751953 78.31926727294922 203.4575653076172 80.54776763916016 205.7231903076172 C 82.81339263916016 207.9517059326172 85.50922393798828 209.0853729248047 88.67739105224609 209.0853729248047 C 91.84218597412109 209.0853729248047 94.53968048095703 207.9517059326172 96.76482391357422 205.7231903076172 C 98.99333953857422 203.4575653076172 100.1270065307617 200.7583770751953 100.1270065307617 197.5935516357422 C 100.1270065307617 194.4287261962891 98.99333953857422 191.6924591064453 96.76482391357422 189.4639129638672 C 94.53968048095703 187.2370758056641 91.80336761474609 186.1034393310547 88.55930328369141 186.1034393310547 C 85.47042083740234 186.1034393310547 82.77291107177734 187.2370758056641 80.54776763916016 189.5027313232422" transform="matrix(1,0,0,1,396.6361885070801,323.43946838378906)" fill="#ffffff" fill-rule="evenodd"/><path d="M 96.38346862792969 212.1375122070312 C 95.87567138671875 212.1375122070312 95.59898376464844 211.8642272949219 95.59898376464844 211.3564147949219 L 95.59898376464844 183.6441955566406 C 95.59898376464844 183.0992736816406 95.87567138671875 182.8259887695312 96.38346862792969 182.8259887695312 L 109.6719055175781 182.8259887695312 C 110.216796875 182.8259887695312 110.4934539794922 183.0992736816406 110.4934539794922 183.6441955566406 L 110.4934539794922 185.5201110839844 C 110.4934539794922 186.070068359375 110.216796875 186.3433532714844 109.6719055175781 186.3433532714844 L 99.07759094238281 186.3433532714844 L 99.07759094238281 195.1731262207031 L 109.6719055175781 195.1731262207031 C 110.216796875 195.1731262207031 110.4934539794922 195.4497375488281 110.4934539794922 195.9963073730469 L 110.4934539794922 197.9093933105469 C 110.4934539794922 198.4171752929688 110.216796875 198.6904907226562 109.6719055175781 198.6904907226562 L 99.07759094238281 198.6904907226562 L 99.07759094238281 211.3564147949219 C 99.07759094238281 211.8642272949219 98.80596923828125 212.1375122070312 98.29818725585938 212.1375122070312 L 96.38346862792969 212.1375122070312 Z" transform="matrix(1,0,0,1,411.6758575439453,323.5521240234375)" fill="#ffffff" fill-rule="evenodd"/><path d="M 109.3110809326172 212.1375122070312 C 108.8032989501953 212.1375122070312 108.5299987792969 211.8642272949219 108.5299987792969 211.3564147949219 L 108.5299987792969 183.6441955566406 C 108.5299987792969 183.0992736816406 108.8032989501953 182.8259887695312 109.3110809326172 182.8259887695312 L 122.5995483398438 182.8259887695312 C 123.1444244384766 182.8259887695312 123.4210968017578 183.0992736816406 123.4210968017578 183.6441955566406 L 123.4210968017578 185.5201110839844 C 123.4210968017578 186.070068359375 123.1444244384766 186.3433532714844 122.5995483398438 186.3433532714844 L 112.0051879882812 186.3433532714844 L 112.0051879882812 195.1731262207031 L 122.5995483398438 195.1731262207031 C 123.1444244384766 195.1731262207031 123.4210968017578 195.4497375488281 123.4210968017578 195.9963073730469 L 123.4210968017578 197.9093933105469 C 123.4210968017578 198.4171752929688 123.1444244384766 198.6904907226562 122.5995483398438 198.6904907226562 L 112.0051879882812 198.6904907226562 L 112.0051879882812 211.3564147949219 C 112.0051879882812 211.8642272949219 111.7335968017578 212.1375122070312 111.2258148193359 212.1375122070312 L 109.3110809326172 212.1375122070312 Z" transform="matrix(1,0,0,1,420.5593490600586,323.5521240234375)" fill="#ffffff" fill-rule="evenodd"/><path d="M 122.2160949707031 212.1375122070312 C 121.7083129882812 212.1375122070312 121.4349975585938 211.8642272949219 121.4349975585938 211.3564147949219 L 121.4349975585938 183.6441955566406 C 121.4349975585938 183.0992736816406 121.7083129882812 182.8259887695312 122.2160949707031 182.8259887695312 L 124.1342163085938 182.8259887695312 C 124.7178955078125 182.8259887695312 124.952392578125 183.0992736816406 124.9136047363281 183.6441955566406 L 124.9136047363281 211.3564147949219 C 124.952392578125 211.8642272949219 124.7178955078125 212.1375122070312 124.1342163085938 212.1375122070312 L 122.2160949707031 212.1375122070312 Z" transform="matrix(1,0,0,1,429.42498779296875,323.5521240234375)" fill="#ffffff" fill-rule="evenodd"/><path d="M 131.7907409667969 208.1862030029297 C 128.8570556640625 205.2525177001953 127.4130249023438 201.7351226806641 127.4130249023438 197.5935516357422 C 127.4130249023438 193.4503021240234 128.8570556640625 189.9346160888672 131.7907409667969 187.0380096435547 C 134.7210388183594 184.1094818115234 138.2384033203125 182.6619720458984 142.4221801757812 182.6619720458984 C 145.7421875 182.6619720458984 148.6336975097656 183.5628509521484 151.0595703125 185.3223724365234 C 151.7225646972656 185.8301239013672 152.0363464355469 186.2198638916016 152.0363464355469 186.4931793212891 C 152.0363464355469 186.6095733642578 151.9570617675781 186.8069305419922 151.8018493652344 187.0009307861328 L 150.5889282226562 188.4854888916016 C 150.3915405273438 188.7216339111328 150.19921875 188.8380889892578 150.0423278808594 188.8380889892578 C 149.8466491699219 188.8380889892578 149.5345458984375 188.6828765869141 149.1026611328125 188.3302764892578 C 147.1896057128906 186.8457183837891 144.9611206054688 186.1017608642578 142.4221801757812 186.1017608642578 C 139.2539978027344 186.1017608642578 136.5581970214844 187.2354583740234 134.2925415039062 189.4639129638672 C 132.0252685546875 191.6924591064453 130.8882446289062 194.3866119384766 130.8882446289062 197.5513763427734 C 130.8882446289062 200.7954864501953 132.0640258789062 203.5317535400391 134.4089660644531 205.7602996826172 C 136.7926940917969 207.9888458251953 139.44970703125 209.0836639404297 142.4592895507812 209.0836639404297 C 145.2344055175781 209.0836639404297 147.071533203125 208.3413848876953 149.3759765625 206.6206817626953 C 149.6914367675781 206.4249725341797 149.8837585449219 206.3473663330078 150.0018310546875 206.3473663330078 C 150.19921875 206.3473663330078 150.3915405273438 206.4654388427734 150.5889282226562 206.6999359130859 L 151.8018493652344 208.1862030029297 C 151.9570617675781 208.3801727294922 152.0363464355469 208.5353851318359 152.0363464355469 208.7328033447266 C 152.0363464355469 208.8879852294922 151.9570617675781 209.0431976318359 151.7596740722656 209.2405548095703 C 148.9862670898438 211.4691009521484 145.8585815429688 212.5605621337891 142.4221801757812 212.5605621337891 C 138.2384033203125 212.5605621337891 134.7210388183594 211.1165313720703 131.7907409667969 208.1862030029297" transform="matrix(1,0,0,1,433.53182220458984,323.43946838378906)" fill="#ffffff" fill-rule="evenodd"/><path d="M 146.9404144287109 212.1375122070312 C 146.4326934814453 212.1375122070312 146.1560211181641 211.8642272949219 146.1560211181641 211.3564147949219 L 146.1560211181641 183.6441955566406 C 146.1560211181641 183.0992736816406 146.4326934814453 182.8259887695312 146.9404144287109 182.8259887695312 L 160.1900787353516 182.8259887695312 C 160.7366485595703 182.8259887695312 161.0082855224609 183.0992736816406 161.0082855224609 183.6441955566406 L 161.0082855224609 185.5201110839844 C 161.0082855224609 186.070068359375 160.7366485595703 186.3433532714844 160.1900787353516 186.3433532714844 L 149.6345672607422 186.3433532714844 L 149.6345672607422 195.1731262207031 L 160.1900787353516 195.1731262207031 C 160.7366485595703 195.1731262207031 161.0082855224609 195.4497375488281 161.0082855224609 195.9963073730469 L 161.0082855224609 197.9093933105469 C 161.0082855224609 198.4171752929688 160.7366485595703 198.6904907226562 160.1900787353516 198.6904907226562 L 149.6345672607422 198.6904907226562 L 149.6345672607422 208.6589050292969 L 160.1900787353516 208.6589050292969 C 160.7366485595703 208.6201171875 161.0082855224609 208.8934020996094 161.0082855224609 209.4400329589844 L 161.0082855224609 211.3564147949219 C 161.0082855224609 211.8642272949219 160.7366485595703 212.1375122070312 160.1900787353516 212.1375122070312 L 146.9404144287109 212.1375122070312 Z" transform="matrix(1,0,0,1,446.40814208984375,323.5521240234375)" fill="#ffffff" fill-rule="evenodd"/><path d="M 182.2292327880859 153.9520111083984 C 186.3403778076172 158.0632171630859 188.3715667724609 163.0010528564453 188.3715667724609 168.7604217529297 C 188.3715667724609 174.5737762451172 186.2881317138672 179.5082550048828 182.1735382080078 183.6228790283203 C 178.0589752197266 187.7374114990234 173.1244964599609 189.7651519775391 167.3650970458984 189.7651519775391 C 161.5517425537109 189.7651519775391 156.6139068603516 187.7374114990234 152.4993438720703 183.6228790283203 C 148.3881378173828 179.5082550048828 146.3569793701172 174.5737762451172 146.3569793701172 168.8144378662109 C 146.3569793701172 163.0010528564453 148.3881378173828 158.0632171630859 152.4993438720703 153.9520111083984 C 156.6139068603516 149.8374481201172 161.6056976318359 147.7540130615234 167.5287628173828 147.7540130615234 C 173.2324676513672 147.7540130615234 178.1146697998047 149.8374481201172 182.2292327880859 153.9520111083984 M 154.8037261962891 156.2530975341797 C 151.3488006591797 159.7114105224609 149.6483306884766 163.8782806396484 149.6483306884766 168.7604217529297 C 149.6483306884766 173.6409149169922 151.4044952392578 177.8077850341797 154.8594818115234 181.2627716064453 C 158.3144073486328 184.7176971435547 162.4846649169922 186.4738311767578 167.3650970458984 186.4738311767578 C 172.2472686767578 186.4738311767578 176.3584747314453 184.7733917236328 179.8134613037109 181.3184356689453 C 183.2684173583984 177.8634490966797 185.0245819091797 173.6409149169922 185.0245819091797 168.7604217529297 C 185.0245819091797 163.8782806396484 183.3241119384766 159.7114105224609 179.8691253662109 156.2530975341797 C 176.4141387939453 152.7981109619141 172.1916046142578 151.0435943603516 167.1998138427734 151.0435943603516 C 162.3733062744141 151.0435943603516 158.2587432861328 152.7981109619141 154.8037261962891 156.2530975341797" transform="matrix(1,0,0,1,446.54624938964844,299.4578552246094)" fill="#ffffff" fill-rule="evenodd"/></g></svg>